<svg version="1.2" baseProfile="tiny-ps" xmlns="http://www.w3.org/2000/svg" viewBox="0 0 32 32" width="32" height="32">
	<title>dollar-sign-solid-svgrepo-com-svg</title>
	<style>
		tspan { white-space:pre }
		.shp0 { fill: #6d0839 } 
	</style>
	<path id="Layer" class="shp0" d="M17 3L17 5.09C19.84 5.57 22 8.04 22 11L22 12L20 12L20 11C20 8.78 18.22 7 16 7C13.79 7 12 8.81 12 11C12 12.22 12.42 12.86 13.19 13.47C13.96 14.08 15.13 14.56 16.38 15.06C17.63 15.56 18.96 16.08 20.06 16.97C21.17 17.86 22 19.22 22 21C22 23.93 19.84 26.43 17 26.91L17 29L15 29L15 26.91C12.16 26.43 10 23.96 10 21L10 20L12 20L12 21C12 23.22 13.78 25 16 25C18.21 25 20 23.16 20 21C20 19.77 19.58 19.15 18.81 18.53C18.04 17.91 16.88 17.41 15.63 16.91C14.38 16.41 13.04 15.91 11.94 15.03C10.83 14.15 10 12.78 10 11C10 8.05 12.16 5.57 15 5.09L15 3L17 3Z" />
</svg>
