<?xml version="1.0" encoding="iso-8859-1"?>
<!-- Generator: Adobe Illustrator 18.0.0, SVG Export Plug-In . SVG Version: 6.00 Build 0)  -->
<!DOCTYPE svg PUBLIC "-//W3C//DTD SVG 1.1//EN" "http://www.w3.org/Graphics/SVG/1.1/DTD/svg11.dtd">
<svg version="1.1" id="Capa_1" xmlns="http://www.w3.org/2000/svg" xmlns:xlink="http://www.w3.org/1999/xlink" x="0px" y="0px"
	 viewBox="0 0 248.449 248.449" style="enable-background:new 0 0 248.449 248.449;" xml:space="preserve">
<path d="M248.449,50.89H0v146.67h248.449V50.89z M89.284,169.111H28.449V79.338h60.835c-13.357,10.412-21.956,26.641-21.956,44.887
	S75.928,158.699,89.284,169.111z M144.748,135.781c-0.535,7.962-6.143,13.736-14.712,15.868v10.506h-11.525v-9.788
	c-4.359-0.399-8.726-1.453-12.74-3.089l5.187-12.722c3.17,1.293,6.812,2.087,10.252,2.234c4.592,0.2,9.631-0.95,9.834-3.934
	c0.064-0.925,0.192-2.848-8.463-5.953c-5.142-1.711-18.514-6.224-18.398-19.122c0.04-4.367,1.729-8.263,4.889-11.262
	c2.414-2.29,5.631-3.958,9.44-4.955v-7.271h11.525v6.267c5.081,0.293,9.831,1.424,12.424,2.336l-4.554,12.96
	c-1.363-0.479-5.018-1.431-9.109-1.608c-5.59-0.234-9.025,1.055-10.268,2.236c-0.446,0.422-0.605,0.794-0.61,1.421
	c-0.018,1.966,3.032,3.979,9.07,5.991l0.146,0.048C132.196,117.755,145.639,122.561,144.748,135.781z M220,169.111h-60.835
	c13.357-10.412,21.956-26.641,21.956-44.887s-8.6-34.475-21.956-44.887H220V169.111z"/>
<g>
</g>
<g>
</g>
<g>
</g>
<g>
</g>
<g>
</g>
<g>
</g>
<g>
</g>
<g>
</g>
<g>
</g>
<g>
</g>
<g>
</g>
<g>
</g>
<g>
</g>
<g>
</g>
<g>
</g>
</svg>
