<svg version="1.2" baseProfile="tiny-ps" xmlns="http://www.w3.org/2000/svg" viewBox="0 0 32 32" width="32" height="32">
	<title>percent-solid-svgrepo-com-svg</title>
	<style>
		tspan { white-space:pre }
		.shp0 { fill: #6d0839 } 
	</style>
	<path id="Layer" fill-rule="evenodd" class="shp0" d="M13 9.5L13 12.5C13 14.42 11.42 16 9.5 16C7.58 16 6 14.42 6 12.5L6 9.5C6 7.58 7.58 6 9.5 6C11.42 6 13 7.58 13 9.5ZM23.25 6L11.25 26L8.75 26L20.75 6L23.25 6ZM8 9.5L8 12.5C8 13.34 8.66 14 9.5 14C10.34 14 11 13.34 11 12.5L11 9.5C11 8.66 10.34 8 9.5 8C8.66 8 8 8.66 8 9.5ZM26 19.5L26 22.5C26 24.42 24.42 26 22.5 26C20.58 26 19 24.42 19 22.5L19 19.5C19 17.58 20.58 16 22.5 16C24.42 16 26 17.58 26 19.5ZM21 19.5L21 22.5C21 23.34 21.66 24 22.5 24C23.34 24 24 23.34 24 22.5L24 19.5C24 18.66 23.34 18 22.5 18C21.66 18 21 18.66 21 19.5Z" />
</svg>